<svg xmlns="http://www.w3.org/2000/svg" viewBox="0 0 640 800" width="640" height="800" role="img">
<defs>
<filter id="grain-meera" x="0" y="0" width="100%" height="100%">
<feTurbulence type="fractalNoise" baseFrequency="0.85" numOctaves="3" stitchTiles="stitch"/>
<feColorMatrix type="saturate" values="0"/>
<feComponentTransfer><feFuncA type="linear" slope="0.16"/></feComponentTransfer>
</filter>
<filter id="soft-meera" x="-25%" y="-25%" width="150%" height="150%">
<feGaussianBlur stdDeviation="18"/>
</filter>
<linearGradient id="bg-meera" x1="0" y1="0" x2="0.4" y2="1">
<stop offset="0" stop-color="#3F7C85"/><stop offset="1" stop-color="#2E555C"/>
</linearGradient>
<clipPath id="pc-meera"><rect width="640" height="800"/></clipPath>
</defs>
<g clip-path="url(#pc-meera)">
<rect width="640" height="800" fill="url(#bg-meera)"/>
<circle cx="562" cy="132" r="58" fill="#FFFFFF" opacity="0.12"/>
<path d="M 60 620 q 60 -70 128 -8" stroke="#FFFFFF" stroke-width="5" fill="none" opacity="0.18" stroke-linecap="round"/>
<circle cx="320" cy="366" r="295" fill="#FFFFFF" opacity="0.1"/>
<path d="M 88 800 q 0 -214 232 -214 q 232 0 232 214 Z" fill="#C1785C"/>
<path d="M 258 604 q 62 -44 124 0 l 0 196 h -124 Z" fill="#C1785C" opacity="0.82"/>
<rect x="286" y="448.6" width="68" height="82" rx="30" fill="#A9714F"/>
<circle cx="320" cy="366" r="118" fill="#A9714F"/>
<path d="M 178.4 436.8 a 141.6 146.32 0 0 1 283.2 0 q -61.36 -40.120000000000005 -141.6 -47.2 q -80.24000000000001 7.08 -141.6 47.2 Z" fill="#C1785C"/>
<path d="M 183.12 382.52 a 136.88 146.32 0 0 1 273.76 0 Z" fill="#1B1614"/>
<circle cx="280" cy="372" r="7" fill="#111111" opacity="0.7"/>
<circle cx="360" cy="372" r="7" fill="#111111" opacity="0.7"/>
<path d="M 288 418 q 32 28 64 0" stroke="#111111" stroke-width="7" fill="none" opacity="0.45" stroke-linecap="round"/>
<g fill="none" stroke="#142B30" stroke-width="6" opacity="0.75">
<rect x="242" y="340" width="76" height="62" rx="18"/>
<rect x="322" y="340" width="76" height="62" rx="18"/>
<path d="M 318 370 h 4"/>
</g>
<rect width="640" height="800" filter="url(#grain-meera)" opacity="0.5" style="mix-blend-mode:multiply"/>
</g>
</svg>